<?xml version="1.0" standalone="no"?>
<!DOCTYPE svg PUBLIC "-//W3C//DTD SVG 20010904//EN"
 "http://www.w3.org/TR/2001/REC-SVG-20010904/DTD/svg10.dtd">
<svg version="1.0" xmlns="http://www.w3.org/2000/svg"
 width="1024.000000pt" height="1024.000000pt" viewBox="0 0 1024.000000 1024.000000"
 preserveAspectRatio="xMidYMid meet">

<g transform="translate(0.000000,1024.000000) scale(0.100000,-0.100000)"
fill="#000000" stroke="none">
<path d="M3542 8630 c0 -19 2 -27 5 -17 2 9 2 25 0 35 -3 9 -5 1 -5 -18z"/>
<path d="M3469 8623 l-24 -28 28 24 c25 23 32 31 24 31 -2 0 -14 -12 -28 -27z"/>
<path d="M3533 8485 c0 -44 2 -61 4 -37 2 23 2 59 0 80 -2 20 -4 1 -4 -43z"/>
<path d="M3362 8380 c0 -14 2 -19 5 -12 2 6 2 18 0 25 -3 6 -5 1 -5 -13z"/>
<path d="M3542 8365 c0 -16 2 -22 5 -12 2 9 2 23 0 30 -3 6 -5 -1 -5 -18z"/>
<path d="M3353 8270 c0 -41 2 -58 4 -37 2 20 2 54 0 75 -2 20 -4 3 -4 -38z"/>
<path d="M3552 8300 c0 -14 2 -19 5 -12 2 6 2 18 0 25 -3 6 -5 1 -5 -13z"/>
<path d="M6833 8245 c0 -27 2 -38 4 -22 2 15 2 37 0 50 -2 12 -4 0 -4 -28z"/>
<path d="M5115 8189 c-27 -4 -87 -18 -133 -33 -159 -50 -288 -52 -447 -6 -38
11 -71 20 -72 20 -2 0 -3 -11 -3 -25 0 -32 69 -109 125 -138 61 -33 199 -30
320 8 222 69 283 75 355 35 36 -20 47 -33 54 -63 9 -36 8 -38 -32 -73 -42 -35
-151 -164 -170 -201 -6 -11 -16 -50 -22 -86 -19 -124 24 -255 142 -428 89
-129 106 -165 119 -251 22 -138 -5 -275 -76 -400 -25 -42 -45 -86 -45 -97 0
-68 108 -4 129 77 9 34 30 41 24 7 -3 -14 -1 -25 5 -25 5 0 12 17 14 38 3 21
23 76 44 123 37 82 38 87 38 199 1 105 -2 123 -32 205 -21 59 -58 128 -106
201 -82 122 -122 223 -129 316 -2 31 0 55 5 52 16 -10 8 39 -9 52 -17 12 -16
13 4 14 16 0 26 11 39 45 9 25 21 45 26 45 6 0 36 23 67 52 54 49 101 75 204
113 27 9 51 24 54 33 9 22 -35 56 -104 81 -56 20 -73 28 -158 77 -47 27 -156
42 -230 33z"/>
<path d="M3353 8135 c0 -27 2 -38 4 -22 2 15 2 37 0 50 -2 12 -4 0 -4 -28z"/>
<path d="M6812 8070 c0 -14 2 -19 5 -12 2 6 2 18 0 25 -3 6 -5 1 -5 -13z"/>
<path d="M3362 8055 c0 -16 2 -22 5 -12 2 9 2 23 0 30 -3 6 -5 -1 -5 -18z"/>
<path d="M6796 8009 c-3 -18 -4 -34 -2 -36 2 -3 7 10 11 27 4 17 5 34 2 36 -2
3 -7 -10 -11 -27z"/>
<path d="M3371 8004 c0 -11 3 -14 6 -6 3 7 2 16 -1 19 -3 4 -6 -2 -5 -13z"/>
<path d="M5083 7963 c-19 -47 -8 -69 37 -66 35 1 70 28 70 53 0 25 -32 50 -64
50 -22 0 -30 -7 -43 -37z"/>
<path d="M3381 7973 c-2 -21 45 -137 85 -209 45 -83 113 -170 190 -244 39 -38
31 -26 -27 37 -78 85 -143 177 -151 213 -2 8 -11 23 -20 34 -10 11 -18 28 -18
38 0 10 -7 30 -16 43 -9 14 -12 25 -8 25 5 0 4 4 -2 8 -6 4 -16 21 -22 37 -6
17 -11 24 -11 18z"/>
<path d="M6771 7924 c-7 -20 -11 -38 -8 -40 3 -3 10 11 17 31 16 47 8 55 -9 9z"/>
<path d="M4500 7880 c0 -34 68 -96 120 -110 25 -7 70 -10 101 -8 l56 4 -9 -35
c-6 -19 -25 -70 -45 -113 -46 -106 -66 -205 -59 -293 7 -92 47 -249 80 -313
l26 -52 54 0 53 0 -7 38 c-4 20 -19 82 -33 137 -35 141 -38 175 -22 300 18
141 54 273 88 322 27 39 34 86 18 111 -5 9 -43 14 -127 17 -65 1 -158 6 -206
10 -87 8 -88 7 -88 -15z"/>
<path d="M3111 7831 c-61 -61 -19 -358 75 -527 132 -240 436 -425 841 -514
108 -23 381 -55 391 -45 10 10 -120 130 -192 177 -33 22 -144 80 -245 130
-312 152 -454 246 -596 400 -97 105 -143 177 -184 292 -39 108 -54 123 -90 87z"/>
<path d="M7017 7833 c-8 -10 -36 -65 -61 -122 -55 -124 -110 -203 -202 -292
-137 -130 -265 -213 -521 -334 -75 -36 -189 -100 -252 -142 -116 -78 -235
-185 -228 -206 9 -28 107 -14 407 57 207 48 435 142 577 236 64 43 183 163
235 237 70 103 117 264 125 436 5 94 4 110 -12 127 -22 25 -47 26 -68 3z"/>
<path d="M6339 7773 c-13 -16 -12 -17 4 -4 9 7 17 15 17 17 0 8 -8 3 -21 -13z"/>
<path d="M3810 7776 c0 -2 8 -10 18 -17 15 -13 16 -12 3 4 -13 16 -21 21 -21
13z"/>
<path d="M6690 7760 c-6 -11 -8 -20 -6 -20 3 0 10 9 16 20 6 11 8 20 6 20 -3
0 -10 -9 -16 -20z"/>
<path d="M6635 7679 c-20 -28 -32 -48 -26 -45 12 8 74 96 67 96 -2 0 -21 -23
-41 -51z"/>
<path d="M4010 7565 c13 -14 26 -25 28 -25 3 0 -5 11 -18 25 -13 14 -26 25
-28 25 -3 0 5 -11 18 -25z"/>
<path d="M6489 7513 c-13 -16 -12 -17 4 -4 9 7 17 15 17 17 0 8 -8 3 -21 -13z"/>
<path d="M3743 7443 c18 -20 107 -87 107 -80 0 2 -28 25 -62 52 -35 26 -55 39
-45 28z"/>
<path d="M6390 7429 c-35 -31 -35 -31 -3 -9 18 11 35 25 38 30 10 16 2 11 -35
-21z"/>
<path d="M6289 7359 l-24 -20 28 17 c15 9 27 18 27 20 0 8 -8 4 -31 -17z"/>
<path d="M3870 7350 c35 -24 54 -31 30 -11 -14 11 -29 21 -35 21 -5 0 -3 -5 5
-10z"/>
<path d="M4350 7276 c0 -2 8 -10 18 -17 15 -13 16 -12 3 4 -13 16 -21 21 -21
13z"/>
<path d="M4428 7166 c20 -36 38 -63 40 -61 5 5 -56 113 -68 120 -5 3 7 -23 28
-59z"/>
<path d="M5880 7106 c-30 -24 -82 -72 -115 -107 -52 -55 -49 -53 25 16 47 44
101 92 120 107 19 15 33 27 30 28 -3 0 -30 -20 -60 -44z"/>
<path d="M4285 7104 c6 -5 23 -20 40 -34 29 -24 29 -24 10 -2 -11 13 -29 28
-40 34 -11 6 -15 6 -10 2z"/>
<path d="M4410 6996 c0 -2 8 -10 18 -17 15 -13 16 -12 3 4 -13 16 -21 21 -21
13z"/>
<path d="M4502 6980 c0 -14 2 -19 5 -12 2 6 2 18 0 25 -3 6 -5 1 -5 -13z"/>
<path d="M3351 6766 c-21 -22 -22 -29 -12 -57 36 -102 119 -188 245 -249 133
-66 184 -75 396 -74 171 0 195 2 316 31 72 17 147 38 167 47 74 31 30 77 -91
96 -31 5 -149 19 -262 30 -278 28 -438 67 -632 156 -54 24 -99 44 -101 44 -2
0 -14 -11 -26 -24z"/>
<path d="M6691 6743 c-144 -70 -355 -119 -706 -164 -176 -22 -290 -53 -290
-79 0 -58 341 -127 585 -117 210 8 311 47 454 178 61 55 116 139 116 176 0 21
-34 54 -55 52 -5 0 -52 -21 -104 -46z"/>
<path d="M5493 6333 c-43 -17 18 -113 112 -179 90 -64 168 -87 286 -87 88 0
104 3 156 29 45 23 59 35 61 54 4 46 -10 54 -110 62 -91 6 -168 26 -338 86
-90 32 -147 44 -167 35z"/>
<path d="M4525 6295 c-161 -57 -234 -75 -344 -85 -110 -10 -138 -23 -127 -57
9 -29 58 -52 142 -68 152 -30 261 -11 371 61 89 60 147 140 122 170 -18 22
-56 17 -164 -21z"/>
<path d="M4950 6160 c0 -6 4 -9 9 -5 6 3 12 -12 14 -32 l4 -38 -1 39 c0 22 -7
41 -13 44 -7 2 -13 -1 -13 -8z"/>
<path d="M4946 6035 c-9 -26 -7 -32 5 -12 6 10 9 21 6 23 -2 3 -7 -2 -11 -11z"/>
<path d="M4847 6001 c-14 -21 -49 -65 -79 -98 -47 -53 -46 -53 12 8 57 59 109
129 97 129 -2 0 -16 -17 -30 -39z"/>
<path d="M5118 5993 c-8 -10 -34 -66 -57 -124 -78 -198 -200 -373 -407 -589
-386 -403 -571 -713 -639 -1070 -23 -119 -30 -354 -16 -465 24 -177 128 -446
231 -601 126 -187 199 -271 320 -367 70 -56 175 -115 186 -104 3 2 -19 24 -47
48 -56 47 -188 207 -248 299 -141 220 -220 583 -193 887 18 201 57 336 156
537 46 94 94 185 108 201 14 17 48 64 76 106 28 42 93 127 144 190 51 63 115
143 142 179 27 36 62 81 77 100 46 59 135 230 177 341 78 203 83 447 11 449
-3 0 -13 -8 -21 -17z"/>
<path d="M4906 5943 c-6 -14 -5 -15 5 -6 7 7 10 15 7 18 -3 3 -9 -2 -12 -12z"/>
<path d="M4865 5878 c-15 -24 -46 -65 -69 -93 -22 -27 -33 -44 -24 -37 28 22
138 172 125 172 -2 0 -17 -19 -32 -42z"/>
<path d="M6135 5879 c-28 -25 -35 -38 -35 -67 0 -43 41 -92 77 -92 45 0 92 28
109 64 23 46 5 92 -42 112 -49 21 -69 17 -109 -17z"/>
<path d="M3906 5879 c-33 -26 -37 -88 -6 -119 29 -29 94 -27 125 5 74 73 -36
179 -119 114z"/>
<path d="M4674 5818 l-19 -23 23 19 c21 18 27 26 19 26 -2 0 -12 -10 -23 -22z"/>
<path d="M4619 5773 c-13 -16 -12 -17 4 -4 16 13 21 21 13 21 -2 0 -10 -8 -17
-17z"/>
<path d="M4574 5738 l-19 -23 23 19 c21 18 27 26 19 26 -2 0 -12 -10 -23 -22z"/>
<path d="M4680 5668 c-38 -35 -43 -41 -15 -20 37 28 83 73 74 72 -2 -1 -29
-24 -59 -52z"/>
<path d="M4370 5615 c-82 -50 -87 -60 -7 -17 45 24 98 62 86 62 -2 0 -38 -21
-79 -45z"/>
<path d="M4599 5603 c-13 -16 -12 -17 4 -4 16 13 21 21 13 21 -2 0 -10 -8 -17
-17z"/>
<path d="M4190 5520 c-9 -6 -10 -10 -3 -10 6 0 15 5 18 10 8 12 4 12 -15 0z"/>
<path d="M4440 5500 c-9 -6 -10 -10 -3 -10 6 0 15 5 18 10 8 12 4 12 -15 0z"/>
<path d="M5342 5417 c-22 -23 -22 -24 -22 -494 0 -443 1 -471 18 -486 25 -23
68 -21 92 3 19 19 20 33 20 490 0 457 -1 471 -20 490 -27 27 -62 25 -88 -3z"/>
<path d="M5746 5188 c-46 -66 33 -132 92 -78 28 27 28 45 -3 75 -30 31 -69 32
-89 3z"/>
<path d="M4034 5001 c-46 -33 -185 -183 -227 -244 -73 -108 -132 -258 -157
-403 -20 -115 7 -194 62 -181 34 9 56 58 73 160 32 192 90 316 230 491 52 65
97 127 101 138 6 19 -19 68 -35 68 -4 0 -26 -13 -47 -29z"/>
<path d="M5033 4774 c-22 -22 -25 -32 -20 -67 6 -42 35 -77 64 -77 8 0 28 14
45 30 25 26 29 36 24 62 -8 38 -42 78 -68 78 -10 0 -31 -12 -45 -26z"/>
<path d="M5677 4463 c-11 -11 -8 -48 5 -61 29 -29 86 7 73 47 -5 16 -15 21
-39 21 -18 0 -36 -3 -39 -7z"/>
<path d="M5031 4314 c-18 -23 -20 -40 -20 -185 -1 -146 1 -161 19 -179 25 -25
61 -26 91 -2 21 18 23 27 27 181 5 158 4 162 -18 186 -31 33 -72 33 -99 -1z"/>
<path d="M5341 4173 c-20 -25 -21 -36 -19 -206 l3 -180 27 -20 c23 -17 33 -19
55 -11 46 16 50 42 44 237 -5 161 -8 180 -25 193 -30 22 -62 17 -85 -13z"/>
<path d="M4630 3972 c-43 -21 -80 -75 -80 -115 0 -16 9 -45 21 -64 70 -113
249 -64 249 69 0 44 -38 94 -87 114 -43 18 -61 18 -103 -4z"/>
<path d="M3669 3854 c-74 -79 30 -206 106 -129 31 30 33 77 5 123 -26 42 -74
45 -111 6z"/>
<path d="M5652 3760 c-20 -19 -22 -31 -22 -118 0 -109 6 -122 56 -122 51 0 64
28 64 136 0 75 -3 94 -18 107 -25 23 -54 21 -80 -3z"/>
<path d="M5026 3658 c-14 -20 -16 -129 -16 -968 l0 -945 -23 -40 c-27 -47 -99
-105 -132 -105 -37 0 -75 21 -90 50 -13 24 -12 30 11 64 17 25 24 47 22 69 -3
30 -6 32 -38 31 -32 -1 -38 4 -65 49 -58 95 -145 147 -249 147 -117 0 -182
-46 -228 -161 -23 -56 -29 -63 -54 -64 -71 -3 -84 -7 -114 -32 -32 -26 -32
-29 -27 -90 2 -35 4 -64 3 -65 0 -1 -227 -4 -502 -7 -475 -6 -503 -7 -523 -25
-27 -25 -27 -57 2 -84 l23 -22 2074 2 2073 3 19 26 c19 24 19 28 4 56 -8 17
-22 33 -30 36 -8 3 -234 6 -501 7 -268 0 -497 3 -509 6 -18 4 -27 18 -39 64
-20 71 -52 100 -109 100 -44 0 -88 -35 -88 -70 0 -24 -18 -61 -34 -72 -39 -26
-94 10 -133 85 -29 59 -38 67 -75 67 -41 0 -63 -39 -49 -83 14 -42 6 -65 -25
-73 -54 -14 -124 42 -144 114 -6 24 -10 265 -10 670 0 619 0 632 -20 652 -27
27 -62 25 -88 -3 l-22 -23 0 -625 c0 -383 4 -641 11 -668 12 -53 -4 -83 -57
-108 -32 -16 -35 -16 -61 3 -15 11 -36 38 -47 60 -21 39 -21 50 -24 998 -2
874 -4 961 -19 978 -23 26 -78 24 -97 -4z"/>
<path d="M5331 3414 c-27 -35 -27 -40 8 -75 47 -46 96 -34 116 29 5 17 1 30
-16 48 -31 34 -81 33 -108 -2z"/>
<path d="M5661 3317 c-39 -19 -39 -12 -33 -584 2 -220 3 -234 23 -254 26 -26
67 -22 89 11 15 23 17 60 12 416 -2 215 -7 396 -11 401 -11 17 -55 23 -80 10z"/>
<path d="M4723 3270 c-49 -20 -38 -103 15 -114 91 -21 132 74 47 109 -19 8
-36 15 -37 14 -2 0 -13 -4 -25 -9z"/>
<path d="M6296 3154 c-24 -24 -27 -47 -24 -204 l3 -144 27 -15 c20 -12 34 -13
55 -5 l28 9 3 160 c3 183 -4 215 -48 215 -16 0 -36 -7 -44 -16z"/>
<path d="M6027 2994 c-14 -14 -7 -54 12 -64 28 -15 71 21 55 47 -11 19 -54 29
-67 17z"/>
<path d="M3788 2969 c-22 -12 -34 -92 -19 -125 15 -35 74 -34 97 1 18 28 14
90 -8 111 -20 18 -51 24 -70 13z"/>
<path d="M4050 2558 c-81 -41 -118 -135 -85 -214 44 -105 141 -141 243 -90 26
13 53 22 60 20 7 -1 8 0 3 2 -7 4 -5 14 4 27 19 29 29 98 21 141 -9 46 -50 94
-101 117 -53 25 -92 24 -145 -3z"/>
<path d="M6025 2545 c-22 -8 -41 -15 -43 -15 -1 0 -16 -21 -32 -47 -59 -92
-31 -196 63 -242 54 -26 69 -26 136 3 48 21 56 29 74 72 36 92 11 177 -64 216
-50 26 -89 30 -134 13z"/>
<path d="M3691 2084 c-28 -35 -26 -69 4 -99 51 -52 135 -21 135 48 0 72 -96
106 -139 51z"/>
<path d="M6375 2085 c-31 -30 -32 -66 -2 -99 22 -25 34 -30 70 -27 27 2 67 47
67 76 0 36 -42 75 -80 75 -19 0 -40 -9 -55 -25z"/>
<path d="M5641 2081 c-12 -12 -21 -32 -21 -45 0 -31 43 -66 82 -66 23 0 32 7
45 35 16 34 16 36 -4 63 -26 35 -74 41 -102 13z"/>
<path d="M6609 1801 c-53 -53 -29 -118 51 -136 52 -11 110 33 110 85 0 36 -53
80 -95 80 -27 0 -44 -8 -66 -29z"/>
<path d="M2758 1573 c-30 -36 -31 -44 -2 -74 34 -35 53 -37 82 -6 26 28 27 45
6 75 -19 27 -65 29 -86 5z"/>
<path d="M7340 1570 c-31 -31 -22 -78 21 -100 16 -9 27 -7 54 10 40 25 44 46
14 84 -25 31 -61 34 -89 6z"/>
</g>
</svg>
